<mxfile host="65bd71144e">
    <diagram id="SDM0jvPciE_7nI8iowvA" name="第 1 页">
        <mxGraphModel dx="724" dy="1732" grid="1" gridSize="10" guides="1" tooltips="1" connect="1" arrows="1" fold="1" page="1" pageScale="1" pageWidth="827" pageHeight="1169" math="0" shadow="0">
            <root>
                <mxCell id="0"/>
                <mxCell id="1" parent="0"/>
                <mxCell id="2" value="主线程" style="rounded=0;whiteSpace=wrap;html=1;align=left;verticalAlign=top;fontSize=20;fontStyle=1" parent="1" vertex="1">
                    <mxGeometry x="10" y="-70" width="1050" height="540" as="geometry"/>
                </mxCell>
                <mxCell id="4" value="main()" style="rhombus;whiteSpace=wrap;html=1;fontSize=20;" parent="1" vertex="1">
                    <mxGeometry x="340" y="10" width="114" height="50" as="geometry"/>
                </mxCell>
                <mxCell id="7" value="" style="edgeStyle=none;html=1;fontSize=15;" parent="1" source="5" target="4" edge="1">
                    <mxGeometry relative="1" as="geometry"/>
                </mxCell>
                <mxCell id="26" style="edgeStyle=none;html=1;exitX=0.5;exitY=1;exitDx=0;exitDy=0;fontSize=15;endArrow=classic;endFill=1;dashed=1;" parent="1" source="5" target="25" edge="1">
                    <mxGeometry relative="1" as="geometry"/>
                </mxCell>
                <mxCell id="117" style="edgeStyle=orthogonalEdgeStyle;html=1;exitX=0.5;exitY=1;exitDx=0;exitDy=0;entryX=0.5;entryY=0;entryDx=0;entryDy=0;dashed=1;" parent="1" source="5" target="55" edge="1">
                    <mxGeometry relative="1" as="geometry"/>
                </mxCell>
                <mxCell id="5" value="TcpServer" style="rounded=0;whiteSpace=wrap;html=1;fontSize=20;" parent="1" vertex="1">
                    <mxGeometry x="340" y="85" width="110" height="40" as="geometry"/>
                </mxCell>
                <mxCell id="22" style="edgeStyle=none;html=1;exitX=1;exitY=0.5;exitDx=0;exitDy=0;entryX=0;entryY=0.5;entryDx=0;entryDy=0;fontSize=15;endArrow=classic;endFill=1;" parent="1" source="8" target="20" edge="1">
                    <mxGeometry relative="1" as="geometry"/>
                </mxCell>
                <mxCell id="24" style="edgeStyle=none;html=1;exitX=0.5;exitY=0;exitDx=0;exitDy=0;entryX=0.5;entryY=1;entryDx=0;entryDy=0;fontSize=15;endArrow=classic;endFill=1;dashed=1;" parent="1" source="8" target="9" edge="1">
                    <mxGeometry relative="1" as="geometry"/>
                </mxCell>
                <mxCell id="90" value="注册监听" style="edgeLabel;html=1;align=center;verticalAlign=middle;resizable=0;points=[];fontSize=20;" parent="24" vertex="1" connectable="0">
                    <mxGeometry x="0.4667" y="3" relative="1" as="geometry">
                        <mxPoint x="43" y="18" as="offset"/>
                    </mxGeometry>
                </mxCell>
                <mxCell id="8" value="" style="rounded=0;whiteSpace=wrap;html=1;fontSize=15;" parent="1" vertex="1">
                    <mxGeometry x="30" y="115" width="185" height="90" as="geometry"/>
                </mxCell>
                <mxCell id="11" style="edgeStyle=none;html=1;exitX=1;exitY=0.5;exitDx=0;exitDy=0;entryX=0;entryY=0.5;entryDx=0;entryDy=0;fontSize=15;" parent="1" source="9" target="10" edge="1">
                    <mxGeometry relative="1" as="geometry"/>
                </mxCell>
                <mxCell id="9" value="&lt;font style=&quot;font-size: 20px;&quot;&gt;Poller&lt;/font&gt;" style="rounded=0;whiteSpace=wrap;html=1;fontSize=15;" parent="1" vertex="1">
                    <mxGeometry x="82.5" y="20" width="80" height="30" as="geometry"/>
                </mxCell>
                <mxCell id="12" style="edgeStyle=none;html=1;exitX=1;exitY=0.5;exitDx=0;exitDy=0;entryX=0;entryY=0.5;entryDx=0;entryDy=0;fontSize=15;" parent="1" source="10" target="4" edge="1">
                    <mxGeometry relative="1" as="geometry"/>
                </mxCell>
                <mxCell id="13" style="edgeStyle=none;html=1;exitX=1;exitY=0.5;exitDx=0;exitDy=0;entryX=0;entryY=0.5;entryDx=0;entryDy=0;fontSize=15;endArrow=block;endFill=0;" parent="1" source="10" target="5" edge="1">
                    <mxGeometry relative="1" as="geometry"/>
                </mxCell>
                <mxCell id="10" value="EventLoop" style="rounded=0;whiteSpace=wrap;html=1;fontSize=20;" parent="1" vertex="1">
                    <mxGeometry x="195" y="20" width="105" height="30" as="geometry"/>
                </mxCell>
                <mxCell id="15" value="Channel" style="rounded=0;whiteSpace=wrap;html=1;fontSize=20;" parent="1" vertex="1">
                    <mxGeometry x="40" y="120" width="85" height="25" as="geometry"/>
                </mxCell>
                <mxCell id="18" style="edgeStyle=none;html=1;exitX=0.5;exitY=0;exitDx=0;exitDy=0;fontSize=15;endArrow=block;endFill=0;" parent="1" source="16" target="15" edge="1">
                    <mxGeometry relative="1" as="geometry"/>
                </mxCell>
                <mxCell id="16" value="Socket" style="rounded=0;whiteSpace=wrap;html=1;fontSize=20;" parent="1" vertex="1">
                    <mxGeometry x="50" y="170" width="65" height="25" as="geometry"/>
                </mxCell>
                <mxCell id="19" style="edgeStyle=none;html=1;exitX=0;exitY=0.5;exitDx=0;exitDy=0;entryX=1;entryY=0.5;entryDx=0;entryDy=0;fontSize=15;endArrow=classic;endFill=1;" parent="1" source="17" target="16" edge="1">
                    <mxGeometry relative="1" as="geometry"/>
                </mxCell>
                <mxCell id="17" value="listenfd" style="rounded=0;whiteSpace=wrap;html=1;fontSize=20;" parent="1" vertex="1">
                    <mxGeometry x="140" y="170" width="70" height="25" as="geometry"/>
                </mxCell>
                <mxCell id="23" style="edgeStyle=none;html=1;exitX=1;exitY=0.5;exitDx=0;exitDy=0;entryX=0;entryY=0.5;entryDx=0;entryDy=0;fontSize=15;endArrow=classic;endFill=1;" parent="1" source="20" target="5" edge="1">
                    <mxGeometry relative="1" as="geometry"/>
                </mxCell>
                <mxCell id="20" value="Acceptor" style="rounded=0;whiteSpace=wrap;html=1;fontSize=20;" parent="1" vertex="1">
                    <mxGeometry x="235" y="140" width="92" height="40" as="geometry"/>
                </mxCell>
                <mxCell id="25" value="TcpConnection" style="rounded=0;whiteSpace=wrap;html=1;fontSize=20;" parent="1" vertex="1">
                    <mxGeometry x="326.5" y="275" width="137" height="40" as="geometry"/>
                </mxCell>
                <mxCell id="30" style="edgeStyle=none;html=1;exitX=0;exitY=0.5;exitDx=0;exitDy=0;fontSize=15;endArrow=classic;endFill=1;" parent="1" source="27" target="25" edge="1">
                    <mxGeometry relative="1" as="geometry"/>
                </mxCell>
                <mxCell id="37" style="edgeStyle=none;html=1;exitX=0.5;exitY=0;exitDx=0;exitDy=0;entryX=0.5;entryY=1;entryDx=0;entryDy=0;fontSize=15;endArrow=classic;endFill=1;" parent="1" source="31" target="25" edge="1">
                    <mxGeometry relative="1" as="geometry"/>
                </mxCell>
                <mxCell id="39" style="edgeStyle=none;html=1;exitX=0;exitY=0.5;exitDx=0;exitDy=0;fontSize=15;endArrow=classic;endFill=1;entryX=1;entryY=0.5;entryDx=0;entryDy=0;" parent="1" source="38" target="5" edge="1">
                    <mxGeometry relative="1" as="geometry"/>
                </mxCell>
                <mxCell id="38" value="EventLoopThreadPool" style="rounded=0;whiteSpace=wrap;html=1;fontSize=20;" parent="1" vertex="1">
                    <mxGeometry x="470" y="145" width="220" height="30" as="geometry"/>
                </mxCell>
                <mxCell id="118" style="edgeStyle=orthogonalEdgeStyle;html=1;exitX=0;exitY=0.5;exitDx=0;exitDy=0;entryX=1;entryY=0.5;entryDx=0;entryDy=0;" parent="1" source="40" target="38" edge="1">
                    <mxGeometry relative="1" as="geometry"/>
                </mxCell>
                <mxCell id="40" value="EventLoopThread" style="rounded=0;whiteSpace=wrap;html=1;fontSize=20;" parent="1" vertex="1">
                    <mxGeometry x="750" y="195" width="180" height="30" as="geometry"/>
                </mxCell>
                <mxCell id="124" style="edgeStyle=orthogonalEdgeStyle;html=1;exitX=0;exitY=0.5;exitDx=0;exitDy=0;entryX=1;entryY=0.5;entryDx=0;entryDy=0;fontSize=20;" edge="1" parent="1" source="41" target="38">
                    <mxGeometry relative="1" as="geometry"/>
                </mxCell>
                <mxCell id="41" value="EventLoopThread" style="rounded=0;whiteSpace=wrap;html=1;fontSize=20;" parent="1" vertex="1">
                    <mxGeometry x="751" y="90" width="179" height="30" as="geometry"/>
                </mxCell>
                <mxCell id="125" style="edgeStyle=none;html=1;exitX=0;exitY=0.5;exitDx=0;exitDy=0;fontSize=20;" edge="1" parent="1" source="42">
                    <mxGeometry relative="1" as="geometry">
                        <mxPoint x="690" y="160" as="targetPoint"/>
                    </mxGeometry>
                </mxCell>
                <mxCell id="42" value="..." style="rounded=0;whiteSpace=wrap;html=1;fontSize=20;" parent="1" vertex="1">
                    <mxGeometry x="751" y="145" width="130" height="30" as="geometry"/>
                </mxCell>
                <mxCell id="48" style="edgeStyle=none;html=1;exitX=0;exitY=0.5;exitDx=0;exitDy=0;entryX=1;entryY=0.5;entryDx=0;entryDy=0;fontSize=15;endArrow=classic;endFill=1;" parent="1" source="47" target="41" edge="1">
                    <mxGeometry relative="1" as="geometry"/>
                </mxCell>
                <mxCell id="47" value="Thread" style="rounded=0;whiteSpace=wrap;html=1;strokeColor=#000000;fontSize=20;" parent="1" vertex="1">
                    <mxGeometry x="950" y="90" width="90" height="30" as="geometry"/>
                </mxCell>
                <mxCell id="55" value="..." style="whiteSpace=wrap;html=1;fontSize=20;rounded=0;" parent="1" vertex="1">
                    <mxGeometry x="498.75" y="275" width="120" height="40" as="geometry"/>
                </mxCell>
                <mxCell id="106" value="" style="group" parent="1" vertex="1" connectable="0">
                    <mxGeometry x="1080" y="-180" width="850" height="740" as="geometry"/>
                </mxCell>
                <mxCell id="49" value="子线程" style="rounded=0;whiteSpace=wrap;html=1;strokeColor=#000000;fontSize=26;fillColor=#FFFFFF;fontStyle=1;align=left;verticalAlign=top;" parent="106" vertex="1">
                    <mxGeometry width="850" height="739.9999999999999" as="geometry"/>
                </mxCell>
                <mxCell id="50" value="EventLoopThread::&lt;br style=&quot;font-size: 20px;&quot;&gt;threadFunc()" style="rhombus;whiteSpace=wrap;html=1;strokeColor=#000000;fontSize=20;fillColor=#FFFFFF;labelBackgroundColor=default;" parent="106" vertex="1">
                    <mxGeometry x="222.31" y="10.422535211267604" width="270.38" height="143.86225352112675" as="geometry"/>
                </mxCell>
                <mxCell id="53" style="edgeStyle=none;html=1;exitX=0.5;exitY=0;exitDx=0;exitDy=0;entryX=0.5;entryY=1;entryDx=0;entryDy=0;fontSize=15;endArrow=classic;endFill=1;" parent="106" source="52" target="50" edge="1">
                    <mxGeometry relative="1" as="geometry"/>
                </mxCell>
                <mxCell id="52" value="EventLoop" style="rounded=0;whiteSpace=wrap;html=1;strokeColor=#000000;fontSize=20;fillColor=#FFFFFF;labelBackgroundColor=default;" parent="106" vertex="1">
                    <mxGeometry x="297" y="170.76923076923072" width="121" height="45.53846153846153" as="geometry"/>
                </mxCell>
                <mxCell id="57" style="edgeStyle=none;html=1;exitX=0;exitY=0.5;exitDx=0;exitDy=0;fontSize=15;endArrow=classic;endFill=1;" parent="106" source="54" target="52" edge="1">
                    <mxGeometry relative="1" as="geometry"/>
                </mxCell>
                <mxCell id="54" value="Poller" style="rounded=0;whiteSpace=wrap;html=1;strokeColor=#000000;fontSize=20;fillColor=#FFFFFF;labelBackgroundColor=default;" parent="106" vertex="1">
                    <mxGeometry x="152.5" y="170.76923076923072" width="96" height="45.53846153846153" as="geometry"/>
                </mxCell>
                <mxCell id="65" value="Channel::&lt;br style=&quot;font-size: 20px;&quot;&gt;handleEvent()" style="rhombus;whiteSpace=wrap;html=1;strokeColor=#000000;fontSize=20;fillColor=#FFFFFF;labelBackgroundColor=default;" parent="106" vertex="1">
                    <mxGeometry x="248.75" y="250.14084507042253" width="217.5" height="135.49295774647888" as="geometry"/>
                </mxCell>
                <mxCell id="66" style="edgeStyle=orthogonalEdgeStyle;html=1;exitX=0.5;exitY=1;exitDx=0;exitDy=0;dashed=1;fontSize=15;endArrow=classic;endFill=1;elbow=vertical;" parent="106" source="52" target="65" edge="1">
                    <mxGeometry relative="1" as="geometry"/>
                </mxCell>
                <mxCell id="67" value="TcpConnection::&lt;br style=&quot;font-size: 20px;&quot;&gt;handleWrite()" style="rhombus;whiteSpace=wrap;html=1;strokeColor=#000000;fontSize=20;fillColor=#FFFFFF;labelBackgroundColor=default;" parent="106" vertex="1">
                    <mxGeometry x="90" y="375.69" width="270" height="102.46" as="geometry"/>
                </mxCell>
                <mxCell id="71" style="edgeStyle=orthogonalEdgeStyle;html=1;exitX=0;exitY=0.5;exitDx=0;exitDy=0;dashed=1;fontSize=15;endArrow=classic;endFill=1;elbow=vertical;" parent="106" source="65" target="67" edge="1">
                    <mxGeometry relative="1" as="geometry"/>
                </mxCell>
                <mxCell id="68" value="TcpConnection::&lt;br style=&quot;font-size: 20px;&quot;&gt;handleRead()" style="rhombus;whiteSpace=wrap;html=1;strokeColor=#000000;fontSize=20;fillColor=#FFFFFF;labelBackgroundColor=default;" parent="106" vertex="1">
                    <mxGeometry x="395" y="343.943661971831" width="245" height="134.21098591549296" as="geometry"/>
                </mxCell>
                <mxCell id="73" style="edgeStyle=orthogonalEdgeStyle;html=1;exitX=1;exitY=0.5;exitDx=0;exitDy=0;entryX=0.5;entryY=0;entryDx=0;entryDy=0;dashed=1;fontSize=15;endArrow=classic;endFill=1;elbow=vertical;" parent="106" source="65" target="68" edge="1">
                    <mxGeometry relative="1" as="geometry"/>
                </mxCell>
                <mxCell id="69" value="onWriteCpmplete()" style="rhombus;whiteSpace=wrap;html=1;strokeColor=#000000;fontSize=20;fillColor=#FFFFFF;labelBackgroundColor=default;" parent="106" vertex="1">
                    <mxGeometry x="101.5" y="590" width="247" height="91.08" as="geometry"/>
                </mxCell>
                <mxCell id="72" style="edgeStyle=orthogonalEdgeStyle;html=1;exitX=0.5;exitY=1;exitDx=0;exitDy=0;entryX=0.5;entryY=0;entryDx=0;entryDy=0;dashed=1;fontSize=15;endArrow=classic;endFill=1;elbow=vertical;" parent="106" source="67" target="69" edge="1">
                    <mxGeometry relative="1" as="geometry"/>
                </mxCell>
                <mxCell id="70" value="onMessage()" style="rhombus;whiteSpace=wrap;html=1;strokeColor=#000000;fontSize=20;fillColor=#FFFFFF;labelBackgroundColor=default;" parent="106" vertex="1">
                    <mxGeometry x="407.5" y="523.6923076923075" width="220" height="91.07692307692307" as="geometry"/>
                </mxCell>
                <mxCell id="74" style="edgeStyle=orthogonalEdgeStyle;html=1;exitX=0.5;exitY=1;exitDx=0;exitDy=0;entryX=0.5;entryY=0;entryDx=0;entryDy=0;dashed=1;fontSize=15;endArrow=classic;endFill=1;elbow=vertical;" parent="106" source="68" target="70" edge="1">
                    <mxGeometry relative="1" as="geometry"/>
                </mxCell>
                <mxCell id="76" value="TcpConnection::&lt;br style=&quot;border-color: var(--border-color); font-size: 20px;&quot;&gt;send()" style="rhombus;whiteSpace=wrap;html=1;strokeColor=#000000;fontSize=20;fillColor=#FFFFFF;labelBackgroundColor=default;" parent="106" vertex="1">
                    <mxGeometry x="393.75" y="630" width="247.5" height="110" as="geometry"/>
                </mxCell>
                <mxCell id="77" style="edgeStyle=orthogonalEdgeStyle;html=1;exitX=0.5;exitY=1;exitDx=0;exitDy=0;dashed=1;fontSize=15;endArrow=classic;endFill=1;elbow=vertical;" parent="106" source="70" target="76" edge="1">
                    <mxGeometry relative="1" as="geometry"/>
                </mxCell>
                <mxCell id="126" style="edgeStyle=orthogonalEdgeStyle;html=1;exitX=0.5;exitY=0;exitDx=0;exitDy=0;fontSize=20;dashed=1;" edge="1" parent="106" source="78" target="52">
                    <mxGeometry relative="1" as="geometry"/>
                </mxCell>
                <mxCell id="78" value="TcpConnection::&lt;br style=&quot;border-color: var(--border-color); font-size: 20px;&quot;&gt;sendInLoop()" style="rhombus;whiteSpace=wrap;html=1;strokeColor=#000000;fontSize=20;fillColor=#FFFFFF;labelBackgroundColor=default;" parent="106" vertex="1">
                    <mxGeometry x="570" y="216.31089924160344" width="255" height="136.61538461538458" as="geometry"/>
                </mxCell>
                <mxCell id="79" style="edgeStyle=orthogonalEdgeStyle;html=1;exitX=1;exitY=0.5;exitDx=0;exitDy=0;dashed=1;fontSize=15;endArrow=classic;endFill=1;elbow=vertical;" parent="106" source="76" target="78" edge="1">
                    <mxGeometry relative="1" as="geometry"/>
                </mxCell>
                <mxCell id="107" value="" style="group" parent="106" vertex="1" connectable="0">
                    <mxGeometry x="605" y="22.769230769230766" width="230" height="136.61538461538458" as="geometry"/>
                </mxCell>
                <mxCell id="88" value="&lt;b&gt;箭头含义&lt;br&gt;&lt;br&gt;&lt;br&gt;&lt;/b&gt;" style="rounded=0;whiteSpace=wrap;html=1;strokeColor=#000000;fontSize=15;fillColor=#FFFFFF;align=left;verticalAlign=top;" parent="107" vertex="1">
                    <mxGeometry width="220" height="136.61538461538458" as="geometry"/>
                </mxCell>
                <mxCell id="94" value="" style="endArrow=classic;html=1;fontSize=15;elbow=vertical;" parent="107" edge="1">
                    <mxGeometry width="50" height="50" relative="1" as="geometry">
                        <mxPoint x="15" y="53.74676923076926" as="sourcePoint"/>
                        <mxPoint x="40" y="53.74676923076926" as="targetPoint"/>
                        <Array as="points">
                            <mxPoint x="30" y="53.74676923076926"/>
                        </Array>
                    </mxGeometry>
                </mxCell>
                <mxCell id="97" value="" style="endArrow=block;html=1;fontSize=15;elbow=vertical;endFill=0;" parent="107" edge="1">
                    <mxGeometry width="50" height="50" relative="1" as="geometry">
                        <mxPoint x="15" y="82.20830769230771" as="sourcePoint"/>
                        <mxPoint x="40" y="82.20830769230771" as="targetPoint"/>
                        <Array as="points">
                            <mxPoint x="30" y="82.20830769230771"/>
                        </Array>
                    </mxGeometry>
                </mxCell>
                <mxCell id="99" value="" style="endArrow=classic;html=1;fontSize=15;elbow=vertical;dashed=1;" parent="107" edge="1">
                    <mxGeometry width="50" height="50" relative="1" as="geometry">
                        <mxPoint x="15" y="110.66984615384618" as="sourcePoint"/>
                        <mxPoint x="40" y="110.66984615384618" as="targetPoint"/>
                        <Array as="points">
                            <mxPoint x="30" y="110.66984615384618"/>
                        </Array>
                    </mxGeometry>
                </mxCell>
                <mxCell id="102" value="组合关系，生命周期由其管理" style="text;html=1;strokeColor=none;fillColor=none;align=center;verticalAlign=middle;whiteSpace=wrap;rounded=0;fontSize=10;" parent="107" vertex="1">
                    <mxGeometry x="50" y="45.53846153846153" width="180" height="17.076923076923073" as="geometry"/>
                </mxCell>
                <mxCell id="103" value="聚合关系，生命周期不由其管理" style="text;html=1;strokeColor=none;fillColor=none;align=center;verticalAlign=middle;whiteSpace=wrap;rounded=0;fontSize=10;" parent="107" vertex="1">
                    <mxGeometry x="50" y="74" width="180" height="17.076923076923073" as="geometry"/>
                </mxCell>
                <mxCell id="104" value="创建、调用、注册等行为" style="text;html=1;strokeColor=none;fillColor=none;align=center;verticalAlign=middle;whiteSpace=wrap;rounded=0;fontSize=10;" parent="107" vertex="1">
                    <mxGeometry x="50" y="102.46153846153844" width="180" height="17.076923076923073" as="geometry"/>
                </mxCell>
                <mxCell id="108" value="" style="group" parent="1" vertex="1" connectable="0">
                    <mxGeometry x="291.25" y="370" width="207.5" height="80" as="geometry"/>
                </mxCell>
                <mxCell id="31" value="" style="rounded=0;whiteSpace=wrap;html=1;fontSize=15;" parent="108" vertex="1">
                    <mxGeometry width="207.5" height="80" as="geometry"/>
                </mxCell>
                <mxCell id="32" value="Channel" style="rounded=0;whiteSpace=wrap;html=1;fontSize=20;" parent="108" vertex="1">
                    <mxGeometry x="9.431818181818182" y="5" width="88.03030303030303" height="25" as="geometry"/>
                </mxCell>
                <mxCell id="33" value="Socket" style="rounded=0;whiteSpace=wrap;html=1;fontSize=20;" parent="108" vertex="1">
                    <mxGeometry x="15.719696969696969" y="50" width="75.45454545454545" height="25" as="geometry"/>
                </mxCell>
                <mxCell id="34" value="sockfd" style="rounded=0;whiteSpace=wrap;html=1;fontSize=20;" parent="108" vertex="1">
                    <mxGeometry x="116.32575757575758" y="50" width="88.03030303030303" height="25" as="geometry"/>
                </mxCell>
                <mxCell id="36" style="edgeStyle=none;html=1;exitX=0.5;exitY=0;exitDx=0;exitDy=0;entryX=0.5;entryY=1;entryDx=0;entryDy=0;fontSize=15;endArrow=block;endFill=0;" parent="108" source="33" target="32" edge="1">
                    <mxGeometry relative="1" as="geometry"/>
                </mxCell>
                <mxCell id="35" style="edgeStyle=none;html=1;exitX=0;exitY=0.5;exitDx=0;exitDy=0;entryX=1;entryY=0.5;entryDx=0;entryDy=0;fontSize=15;endArrow=classic;endFill=1;" parent="108" source="34" target="33" edge="1">
                    <mxGeometry relative="1" as="geometry"/>
                </mxCell>
                <mxCell id="110" value="" style="group" parent="1" vertex="1" connectable="0">
                    <mxGeometry x="90" y="255" width="160" height="80" as="geometry"/>
                </mxCell>
                <mxCell id="27" value="" style="rounded=0;whiteSpace=wrap;html=1;fontSize=15;" parent="110" vertex="1">
                    <mxGeometry width="160" height="80" as="geometry"/>
                </mxCell>
                <mxCell id="28" value="inputBuffer" style="rounded=0;whiteSpace=wrap;html=1;fontSize=20;" parent="110" vertex="1">
                    <mxGeometry x="20" y="12.5" width="120" height="25" as="geometry"/>
                </mxCell>
                <mxCell id="29" value="outputBuffer" style="rounded=0;whiteSpace=wrap;html=1;fontSize=20;" parent="110" vertex="1">
                    <mxGeometry x="13.333333333333332" y="42.5" width="133.33333333333331" height="25" as="geometry"/>
                </mxCell>
                <mxCell id="51" style="edgeStyle=none;html=1;exitX=0;exitY=0.5;exitDx=0;exitDy=0;fontSize=15;endArrow=classic;endFill=1;dashed=1;entryX=1;entryY=0.5;entryDx=0;entryDy=0;" parent="1" source="50" target="47" edge="1">
                    <mxGeometry relative="1" as="geometry"/>
                </mxCell>
                <mxCell id="129" style="edgeStyle=orthogonalEdgeStyle;html=1;exitX=1;exitY=0.5;exitDx=0;exitDy=0;entryX=0;entryY=0.5;entryDx=0;entryDy=0;dashed=1;fontSize=20;" edge="1" parent="1" source="31" target="54">
                    <mxGeometry relative="1" as="geometry">
                        <Array as="points">
                            <mxPoint x="1170" y="410"/>
                            <mxPoint x="1170" y="14"/>
                        </Array>
                    </mxGeometry>
                </mxCell>
                <mxCell id="130" value="注册监听" style="edgeLabel;html=1;align=center;verticalAlign=middle;resizable=0;points=[];fontSize=20;" vertex="1" connectable="0" parent="129">
                    <mxGeometry x="-0.4224" y="-3" relative="1" as="geometry">
                        <mxPoint x="-9" y="-24" as="offset"/>
                    </mxGeometry>
                </mxCell>
            </root>
        </mxGraphModel>
    </diagram>
</mxfile>